FiraSans-CondensedSemiLightItalic.ufo
<glyph name="exclam" format="2">
  <advance width="218"/>
  <unicode hex="0021"/>
  <outline>
    <contour>
      <point x="83" y="208" type="line"/>
      <point x="111" y="208" type="line"/>
      <point x="178" y="682" type="line"/>
      <point x="148" y="682" type="line"/>
    </contour>
    <component base="period" xOffset="25"/>
  </outline>
</glyph>
<glyph name="plus" format="2">
  <advance width="412"/>
  <unicode hex="002B"/>
  <outline>
    <contour>
      <point x="256" y="499" type="line"/>
      <point x="226" y="499" type="line"/>
      <point x="204" y="345" type="line"/>
      <point x="78" y="345" type="line"/>
      <point x="74" y="316" type="line"/>
      <point x="199" y="316" type="line"/>
      <point x="177" y="162" type="line"/>
      <point x="208" y="162" type="line"/>
      <point x="229" y="316" type="line"/>
      <point x="354" y="316" type="line"/>
      <point x="358" y="345" type="line"/>
      <point x="234" y="345" type="line"/>
    </contour>
  </outline>
</glyph>
<glyph name="seven" format="2">
  <advance width="356"/>
  <unicode hex="0037"/>
  <outline>
    <contour>
      <point x="382" y="662" type="line"/>
      <point x="87" y="662" type="line"/>
      <point x="83" y="634" type="line"/>
      <point x="344" y="632" type="line"/>
      <point x="41" y="2" type="line"/>
      <point x="68" y="-6" type="line"/>
      <point x="378" y="637" type="line"/>
    </contour>
  </outline>
</glyph>
<glyph name="less" format="2">
  <advance width="420"/>
  <unicode hex="003C"/>
  <outline>
    <contour>
      <point x="376" y="510" type="line"/>
      <point x="77" y="340" type="line"/>
      <point x="73" y="318" type="line"/>
      <point x="325" y="152" type="line"/>
      <point x="343" y="176" type="line"/>
      <point x="106" y="327" type="line"/>
      <point x="386" y="486" type="line"/>
    </contour>
  </outline>
</glyph>
<glyph name="I" format="2">
  <advance width="225"/>
  <unicode hex="0049"/>
  <anchor x="76" y="0" name="bottom"/>
  <anchor x="90" y="0" name="ogonek"/>
  <anchor x="172" y="682" name="top"/>
  <anchor x="132" y="682" name="topleft"/>
  <outline>
    <contour>
      <point x="187" y="682" type="line"/>
      <point x="156" y="682" type="line"/>
      <point x="60" y="0" type="line"/>
      <point x="91" y="0" type="line"/>
    </contour>
  </outline>
</glyph>
<glyph name="J" format="2">
  <advance width="238"/>
  <unicode hex="004A"/>
  <anchor x="188" y="682" name="top"/>
  <outline>
    <contour>
      <point x="205" y="682" type="line"/>
      <point x="174" y="682" type="line"/>
      <point x="91" y="92" type="line" smooth="yes"/>
      <point x="77" y="-6"/>
      <point x="53" y="-36"/>
      <point x="-28" y="-81" type="curve"/>
      <point x="-20" y="-104" type="line"/>
      <point x="78" y="-54"/>
      <point x="106" y="-20"/>
      <point x="121" y="88" type="curve" smooth="yes"/>
    </contour>
  </outline>
</glyph>
<glyph name="K" format="2">
  <advance width="435"/>
  <unicode hex="004B"/>
  <anchor x="210" y="0" name="bottom"/>
  <anchor x="300" y="682" name="top"/>
  <outline>
    <contour>
      <point x="355" y="0" type="line"/>
      <point x="390" y="0" type="line"/>
      <point x="179" y="365" type="line"/>
      <point x="473" y="682" type="line"/>
      <point x="438" y="682" type="line"/>
      <point x="145" y="367" type="line"/>
    </contour>
    <contour>
      <point x="60" y="0" type="line"/>
      <point x="91" y="0" type="line"/>
      <point x="187" y="682" type="line"/>
      <point x="156" y="682" type="line"/>
    </contour>
  </outline>
</glyph>
<glyph name="L" format="2">
  <advance width="371"/>
  <unicode hex="004C"/>
  <anchor x="191" y="0" name="bottom"/>
  <anchor x="305" y="354" name="center"/>
  <anchor x="172" y="682" name="top"/>
  <anchor x="218" y="682" name="topright"/>
  <outline>
    <contour>
      <point x="187" y="682" type="line"/>
      <point x="156" y="682" type="line"/>
      <point x="60" y="0" type="line"/>
      <point x="322" y="0" type="line"/>
      <point x="333" y="30" type="line"/>
      <point x="95" y="30" type="line"/>
    </contour>
  </outline>
</glyph>
<glyph name="M" format="2">
  <advance width="630"/>
  <unicode hex="004D"/>
  <anchor x="279" y="0" name="bottom"/>
  <anchor x="540" y="0" name="bottomright"/>
  <anchor x="372" y="682" name="top"/>
  <outline>
    <contour>
      <point x="569" y="682" type="line"/>
      <point x="521" y="682" type="line"/>
      <point x="295" y="119" type="line"/>
      <point x="221" y="682" type="line"/>
      <point x="178" y="682" type="line"/>
      <point x="25" y="0" type="line"/>
      <point x="55" y="0" type="line"/>
      <point x="132" y="350" type="line"/>
      <point x="155" y="458"/>
      <point x="186" y="596"/>
      <point x="197" y="656" type="curve"/>
      <point x="274" y="83" type="line"/>
      <point x="306" y="83" type="line"/>
      <point x="539" y="658" type="line"/>
      <point x="533" y="589"/>
      <point x="526" y="455"/>
      <point x="520" y="343" type="curve" smooth="yes"/>
      <point x="502" y="0" type="line"/>
      <point x="531" y="0" type="line"/>
    </contour>
  </outline>
</glyph>
<glyph name="T" format="2">
  <advance width="394"/>
  <unicode hex="0054"/>
  <anchor x="161" y="0" name="bottom"/>
  <anchor x="184" y="0" name="bottomright"/>
  <anchor x="210" y="348" name="center"/>
  <anchor x="257" y="682" name="top"/>
  <outline>
    <contour>
      <point x="445" y="682" type="line"/>
      <point x="71" y="682" type="line"/>
      <point x="67" y="652" type="line"/>
      <point x="237" y="652" type="line"/>
      <point x="145" y="0" type="line"/>
      <point x="176" y="0" type="line"/>
      <point x="268" y="652" type="line"/>
      <point x="436" y="652" type="line"/>
    </contour>
  </outline>
</glyph>
<glyph name="V" format="2">
  <advance width="455"/>
  <unicode hex="0056"/>
  <anchor x="191" y="0" name="bottom"/>
  <anchor x="287" y="682" name="top"/>
  <outline>
    <contour>
      <point x="489" y="682" type="line"/>
      <point x="456" y="682" type="line"/>
      <point x="194" y="30" type="line"/>
      <point x="115" y="682" type="line"/>
      <point x="84" y="682" type="line"/>
      <point x="171" y="0" type="line"/>
      <point x="209" y="0" type="line"/>
    </contour>
  </outline>
</glyph>
<glyph name="X" format="2">
  <advance width="407"/>
  <unicode hex="0058"/>
  <anchor x="165" y="0" name="bottom"/>
  <anchor x="337" y="0" name="bottomright"/>
  <anchor x="261" y="682" name="top"/>
  <outline>
    <contour>
      <point x="121" y="682" type="line"/>
      <point x="88" y="682" type="line"/>
      <point x="199" y="370" type="line"/>
      <point x="210" y="343" type="line"/>
      <point x="327" y="0" type="line"/>
      <point x="359" y="0" type="line"/>
      <point x="230" y="367" type="line"/>
      <point x="218" y="392" type="line"/>
    </contour>
    <contour>
      <point x="430" y="682" type="line"/>
      <point x="396" y="682" type="line"/>
      <point x="218" y="392" type="line"/>
      <point x="197" y="370" type="line"/>
      <point x="-26" y="0" type="line"/>
      <point x="7" y="0" type="line"/>
      <point x="210" y="343" type="line"/>
      <point x="232" y="367" type="line"/>
    </contour>
  </outline>
</glyph>
<glyph name="Z" format="2">
  <advance width="417"/>
  <unicode hex="005A"/>
  <anchor x="161" y="0" name="bottom"/>
  <anchor x="268" y="682" name="top"/>
  <outline>
    <contour>
      <point x="-7" y="0" type="line"/>
      <point x="327" y="0" type="line"/>
      <point x="337" y="30" type="line"/>
      <point x="32" y="30" type="line"/>
      <point x="432" y="655" type="line"/>
      <point x="436" y="682" type="line"/>
      <point x="120" y="682" type="line"/>
      <point x="115" y="653" type="line"/>
      <point x="398" y="653" type="line"/>
      <point x="-2" y="28" type="line"/>
    </contour>
  </outline>
</glyph>
<glyph name="bracketleft" format="2">
  <advance width="258"/>
  <unicode hex="005B"/>
  <outline>
    <contour>
      <point x="270" y="799" type="line"/>
      <point x="155" y="799" type="line"/>
      <point x="27" y="-109" type="line"/>
      <point x="142" y="-109" type="line"/>
      <point x="145" y="-86" type="line"/>
      <point x="58" y="-86" type="line"/>
      <point x="179" y="776" type="line"/>
      <point x="267" y="776" type="line"/>
    </contour>
  </outline>
</glyph>
<glyph name="bracketright" format="2">
  <advance width="259"/>
  <unicode hex="005D"/>
  <outline>
    <contour>
      <point x="256" y="799" type="line"/>
      <point x="140" y="799" type="line"/>
      <point x="137" y="776" type="line"/>
      <point x="225" y="776" type="line"/>
      <point x="104" y="-86" type="line"/>
      <point x="16" y="-86" type="line"/>
      <point x="13" y="-109" type="line"/>
      <point x="127" y="-109" type="line"/>
    </contour>
  </outline>
</glyph>
<glyph name="asciicircum" format="2">
  <advance width="442"/>
  <unicode hex="005E"/>
  <outline>
    <contour>
      <point x="313" y="826" type="line"/>
      <point x="290" y="826" type="line"/>
      <point x="99" y="527" type="line"/>
      <point x="136" y="527" type="line"/>
      <point x="297" y="788" type="line"/>
      <point x="385" y="527" type="line"/>
      <point x="419" y="527" type="line"/>
    </contour>
  </outline>
</glyph>
<glyph name="underscore" format="2">
  <advance width="438"/>
  <unicode hex="005F"/>
  <outline>
    <contour>
      <point x="-16" y="-105" type="line"/>
      <point x="352" y="-105" type="line"/>
      <point x="356" y="-77" type="line"/>
      <point x="-12" y="-77" type="line"/>
    </contour>
  </outline>
</glyph>
<glyph name="v" format="2">
  <advance width="383"/>
  <unicode hex="0076"/>
  <anchor x="158" y="0" name="bottom"/>
  <anchor x="228" y="520" name="top"/>
  <outline>
    <contour>
      <point x="400" y="520" type="line"/>
      <point x="368" y="520" type="line"/>
      <point x="161" y="26" type="line"/>
      <point x="88" y="520" type="line"/>
      <point x="57" y="520" type="line"/>
      <point x="139" y="0" type="line"/>
      <point x="177" y="0" type="line"/>
    </contour>
  </outline>
</glyph>
<glyph name="x" format="2">
  <advance width="369"/>
  <unicode hex="0078"/>
  <anchor x="148" y="0" name="bottom"/>
  <anchor x="306" y="0" name="bottomright"/>
  <anchor x="221" y="520" name="top"/>
  <outline>
    <contour>
      <point x="104" y="520" type="line"/>
      <point x="72" y="520" type="line"/>
      <point x="169" y="280" type="line"/>
      <point x="183" y="258" type="line"/>
      <point x="284" y="0" type="line"/>
      <point x="317" y="0" type="line"/>
      <point x="205" y="277" type="line"/>
      <point x="190" y="299" type="line"/>
    </contour>
    <contour>
      <point x="371" y="520" type="line"/>
      <point x="337" y="520" type="line"/>
      <point x="190" y="299" type="line"/>
      <point x="169" y="280" type="line"/>
      <point x="-22" y="0" type="line"/>
      <point x="12" y="0" type="line"/>
      <point x="183" y="258" type="line"/>
      <point x="205" y="277" type="line"/>
    </contour>
  </outline>
</glyph>
<glyph name="y" format="2">
  <advance width="380"/>
  <unicode hex="0079"/>
  <anchor x="124" y="-193" name="bottom"/>
  <anchor x="221" y="520" name="top"/>
  <outline>
    <contour>
      <point x="397" y="520" type="line"/>
      <point x="365" y="520" type="line"/>
      <point x="158" y="22" type="line"/>
      <point x="88" y="520" type="line"/>
      <point x="57" y="520" type="line"/>
      <point x="134" y="0" type="line"/>
      <point x="148" y="1" type="line"/>
      <point x="104" y="-111"/>
      <point x="74" y="-144"/>
      <point x="-14" y="-174" type="curve"/>
      <point x="-11" y="-197" type="line"/>
      <point x="87" y="-165"/>
      <point x="119" y="-137"/>
      <point x="176" y="-3" type="curve" smooth="yes"/>
    </contour>
  </outline>
</glyph>
<glyph name="z" format="2">
  <advance width="338"/>
  <unicode hex="007A"/>
  <anchor x="126" y="0" name="bottom"/>
  <anchor x="214" y="520" name="top"/>
  <outline>
    <contour>
      <point x="346" y="520" type="line"/>
      <point x="81" y="520" type="line"/>
      <point x="77" y="492" type="line"/>
      <point x="307" y="492" type="line"/>
      <point x="-9" y="25" type="line"/>
      <point x="-13" y="0" type="line"/>
      <point x="265" y="0" type="line"/>
      <point x="273" y="28" type="line"/>
      <point x="26" y="28" type="line"/>
      <point x="342" y="495" type="line"/>
    </contour>
  </outline>
</glyph>
<glyph name="bar" format="2">
  <advance width="347"/>
  <unicode hex="007C"/>
  <outline>
    <contour>
      <point x="264" y="802" type="line"/>
      <point x="235" y="802" type="line"/>
      <point x="109" y="-99" type="line"/>
      <point x="138" y="-99" type="line"/>
    </contour>
  </outline>
</glyph>
<glyph name="exclamdown" format="2">
  <advance width="218"/>
  <unicode hex="00A1"/>
  <outline>
    <contour>
      <point x="121" y="251" type="line"/>
      <point x="93" y="251" type="line"/>
      <point x="29" y="-193" type="line"/>
      <point x="59" y="-193" type="line"/>
    </contour>
    <component base="period" xOffset="83" yOffset="409"/>
  </outline>
</glyph>
<glyph name="sterling" format="2">
  <advance width="415"/>
  <unicode hex="00A3"/>
  <outline>
    <contour>
      <point x="137" y="143" type="curve"/>
      <point x="186" y="503" type="line"/>
      <point x="197" y="585"/>
      <point x="241" y="646"/>
      <point x="310" y="646" type="curve" smooth="yes"/>
      <point x="356" y="646"/>
      <point x="382" y="626"/>
      <point x="405" y="588" type="curve"/>
      <point x="426" y="604" type="line"/>
      <point x="399" y="650"/>
      <point x="364" y="674"/>
      <point x="310" y="674" type="curve" smooth="yes"/>
      <point x="224" y="674"/>
      <point x="170" y="600"/>
      <point x="157" y="506" type="curve"/>
      <point x="107" y="143" type="line"/>
      <point x="98" y="82"/>
      <point x="75" y="58"/>
      <point x="21" y="28" type="curve"/>
      <point x="17" y="0" type="line"/>
      <point x="327" y="0" type="line"/>
      <point x="337" y="29" type="line"/>
      <point x="60" y="29" type="line"/>
      <point x="107" y="53"/>
      <point x="128" y="76"/>
    </contour>
    <contour>
      <point x="80" y="339" type="line"/>
      <point x="342" y="339" type="line"/>
      <point x="346" y="367" type="line"/>
      <point x="84" y="367" type="line"/>
    </contour>
  </outline>
</glyph>
<glyph name="brokenbar" format="2">
  <advance width="347"/>
  <unicode hex="00A6"/>
  <outline>
    <contour>
      <point x="264" y="802" type="line"/>
      <point x="235" y="802" type="line"/>
      <point x="185" y="443" type="line"/>
      <point x="214" y="443" type="line"/>
    </contour>
    <contour>
      <point x="188" y="262" type="line"/>
      <point x="159" y="262" type="line"/>
      <point x="109" y="-99" type="line"/>
      <point x="138" y="-99" type="line"/>
    </contour>
  </outline>
</glyph>
<glyph name="logicalnot" format="2">
  <advance width="419"/>
  <unicode hex="00AC"/>
  <outline>
    <contour>
      <point x="363" y="333" type="line"/>
      <point x="76" y="333" type="line"/>
      <point x="72" y="305" type="line"/>
      <point x="329" y="305" type="line"/>
      <point x="313" y="191" type="line"/>
      <point x="343" y="191" type="line"/>
    </contour>
  </outline>
</glyph>
<glyph name="Eth" format="2">
  <advance width="531"/>
  <unicode hex="00D0"/>
  <anchor x="203" y="0" name="bottom"/>
  <anchor x="287" y="341" name="center"/>
  <anchor x="330" y="682" name="top"/>
  <outline>
    <contour>
      <point x="299" y="367" type="line"/>
      <point x="115" y="367" type="line"/>
      <point x="40" y="367" type="line"/>
      <point x="36" y="339" type="line"/>
      <point x="294" y="339" type="line"/>
    </contour>
    <component base="D" xOffset="3"/>
  </outline>
</glyph>
<glyph name="dotlessi" format="2">
  <advance width="216"/>
  <unicode hex="0131"/>
  <anchor x="71" y="0" name="bottom"/>
  <anchor x="84" y="0" name="ogonek"/>
  <anchor x="145" y="520" name="top"/>
  <outline>
    <contour>
      <point x="160" y="520" type="line"/>
      <point x="130" y="520" type="line"/>
      <point x="56" y="0" type="line"/>
      <point x="86" y="0" type="line"/>
    </contour>
  </outline>
</glyph>
<glyph name="dotlessj" format="2">
  <advance width="216"/>
  <unicode hex="0237"/>
  <anchor x="40" y="-193" name="bottom"/>
  <anchor x="145" y="520" name="top"/>
  <outline>
    <contour>
      <point x="-42" y="-196" type="line"/>
      <point x="33" y="-155"/>
      <point x="69" y="-123"/>
      <point x="86" y="0" type="curve" smooth="yes"/>
      <point x="160" y="520" type="line"/>
      <point x="130" y="520" type="line"/>
      <point x="56" y="0" type="line" smooth="yes"/>
      <point x="40" y="-110"/>
      <point x="12" y="-139"/>
      <point x="-51" y="-174" type="curve"/>
    </contour>
  </outline>
</glyph>
<glyph name="gravecomb" format="2">
  <unicode hex="0300"/>
  <anchor x="138" y="520" name="_top"/>
  <anchor x="176" y="767" name="top"/>
  <outline>
    <contour>
      <point x="117" y="765" type="line"/>
      <point x="97" y="735" type="line"/>
      <point x="237" y="651" type="line"/>
      <point x="250" y="670" type="line"/>
    </contour>
  </outline>
</glyph>
<glyph name="acutecomb" format="2">
  <unicode hex="0301"/>
  <anchor x="149" y="520" name="_top"/>
  <anchor x="180" y="767" name="top"/>
  <outline>
    <contour>
      <point x="248" y="766" type="line"/>
      <point x="87" y="671" type="line"/>
      <point x="98" y="651" type="line"/>
      <point x="262" y="735" type="line"/>
    </contour>
  </outline>
</glyph>
<glyph name="circumflexcomb" format="2">
  <unicode hex="0302"/>
  <anchor x="179" y="520" name="_top"/>
  <anchor x="213" y="769" name="top"/>
  <outline>
    <contour>
      <point x="102" y="651" type="line"/>
      <point x="211" y="736" type="line"/>
      <point x="292" y="651" type="line"/>
      <point x="310" y="669" type="line"/>
      <point x="221" y="769" type="line"/>
      <point x="204" y="769" type="line"/>
      <point x="87" y="669" type="line"/>
    </contour>
  </outline>
</glyph>
<glyph name="macroncomb" format="2">
  <unicode hex="0304"/>
  <anchor x="158" y="520" name="_top"/>
  <anchor x="185" y="712" name="top"/>
  <outline>
    <contour>
      <point x="270" y="683" type="line"/>
      <point x="275" y="712" type="line"/>
      <point x="94" y="712" type="line"/>
      <point x="90" y="683" type="line"/>
    </contour>
  </outline>
</glyph>
<glyph name="dotaccentcomb" format="2">
  <unicode hex="0307"/>
  <anchor x="118" y="706" name="_center"/>
  <anchor x="91" y="520" name="_top"/>
  <anchor x="120" y="731" name="top"/>
  <outline>
    <contour>
      <point x="115" y="682" type="curve"/>
      <point x="131" y="682"/>
      <point x="142" y="694"/>
      <point x="142" y="709" type="curve" smooth="yes"/>
      <point x="142" y="721"/>
      <point x="133" y="730"/>
      <point x="120" y="730" type="curve"/>
      <point x="104" y="730"/>
      <point x="93" y="718"/>
      <point x="93" y="703" type="curve" smooth="yes"/>
      <point x="93" y="691"/>
      <point x="102" y="682"/>
    </contour>
  </outline>
</glyph>
<glyph name="dieresiscomb" format="2">
  <unicode hex="0308"/>
  <anchor x="162" y="520" name="_top"/>
  <anchor x="190" y="720" name="top"/>
  <outline>
    <contour>
      <point x="112" y="671" type="curve"/>
      <point x="128" y="671"/>
      <point x="138" y="683"/>
      <point x="138" y="698" type="curve" smooth="yes"/>
      <point x="138" y="710"/>
      <point x="130" y="719"/>
      <point x="117" y="719" type="curve"/>
      <point x="101" y="719"/>
      <point x="91" y="707"/>
      <point x="91" y="692" type="curve" smooth="yes"/>
      <point x="91" y="680"/>
      <point x="99" y="671"/>
    </contour>
    <contour>
      <point x="257" y="671" type="curve"/>
      <point x="273" y="671"/>
      <point x="283" y="683"/>
      <point x="283" y="698" type="curve" smooth="yes"/>
      <point x="283" y="710"/>
      <point x="275" y="719"/>
      <point x="262" y="719" type="curve"/>
      <point x="246" y="719"/>
      <point x="236" y="707"/>
      <point x="236" y="692" type="curve" smooth="yes"/>
      <point x="236" y="680"/>
      <point x="244" y="671"/>
    </contour>
  </outline>
</glyph>
<glyph name="Delta" format="2">
  <advance width="479"/>
  <unicode hex="0394"/>
  <anchor x="203" y="0" name="bottom"/>
  <anchor x="299" y="682" name="top"/>
  <outline>
    <contour>
      <point x="295" y="657" type="line"/>
      <point x="382" y="28" type="line"/>
      <point x="32" y="28" type="line"/>
    </contour>
    <contour>
      <point x="318" y="682" type="line"/>
      <point x="279" y="682" type="line"/>
      <point x="-12" y="0" type="line"/>
      <point x="417" y="0" type="line"/>
    </contour>
  </outline>
</glyph>
<glyph name="figuredash" format="2">
  <advance width="460"/>
  <unicode hex="2012"/>
  <outline>
    <contour>
      <point x="42" y="320" type="line"/>
      <point x="435" y="320" type="line"/>
      <point x="439" y="347" type="line"/>
      <point x="46" y="347" type="line"/>
    </contour>
  </outline>
</glyph>
<glyph name="endash" format="2">
  <advance width="427"/>
  <unicode hex="2013"/>
  <outline>
    <contour>
      <point x="42" y="299" type="line"/>
      <point x="395" y="299" type="line"/>
      <point x="399" y="327" type="line"/>
      <point x="46" y="327" type="line"/>
    </contour>
  </outline>
</glyph>
<glyph name="emdash" format="2">
  <advance width="640"/>
  <unicode hex="2014"/>
  <outline>
    <contour>
      <point x="43" y="300" type="line"/>
      <point x="608" y="300" type="line"/>
      <point x="612" y="327" type="line"/>
      <point x="47" y="327" type="line"/>
    </contour>
  </outline>
</glyph>
<glyph name="dagger" format="2">
  <advance width="425"/>
  <unicode hex="2020"/>
  <outline>
    <contour>
      <point x="284" y="662" type="line"/>
      <point x="253" y="662" type="line"/>
      <point x="232" y="503" type="line"/>
      <point x="86" y="503" type="line"/>
      <point x="82" y="475" type="line"/>
      <point x="227" y="475" type="line"/>
      <point x="160" y="0" type="line"/>
      <point x="191" y="0" type="line"/>
      <point x="257" y="475" type="line"/>
      <point x="402" y="475" type="line"/>
      <point x="406" y="503" type="line"/>
      <point x="262" y="503" type="line"/>
    </contour>
  </outline>
</glyph>
<glyph name="guilsinglleft" format="2">
  <advance width="294"/>
  <unicode hex="2039"/>
  <outline>
    <contour>
      <point x="235" y="507" type="line"/>
      <point x="79" y="298" type="line"/>
      <point x="76" y="278" type="line"/>
      <point x="175" y="70" type="line"/>
      <point x="196" y="82" type="line"/>
      <point x="110" y="286" type="line"/>
      <point x="254" y="494" type="line"/>
    </contour>
  </outline>
</glyph>
<glyph name="guilsinglright" format="2">
  <advance width="294"/>
  <unicode hex="203A"/>
  <outline>
    <contour>
      <point x="127" y="507" type="line"/>
      <point x="106" y="495" type="line"/>
      <point x="192" y="291" type="line"/>
      <point x="48" y="83" type="line"/>
      <point x="67" y="70" type="line"/>
      <point x="223" y="279" type="line"/>
      <point x="226" y="299" type="line"/>
    </contour>
  </outline>
</glyph>
<glyph name="fraction" format="2">
  <advance width="84"/>
  <unicode hex="2044"/>
  <outline>
    <contour>
      <point x="263" y="745" type="line"/>
      <point x="-184" y="-53" type="line"/>
      <point x="-162" y="-65" type="line"/>
      <point x="284" y="733" type="line"/>
    </contour>
  </outline>
</glyph>
<glyph name="minus" format="2">
  <advance width="412"/>
  <unicode hex="2212"/>
  <outline>
    <contour>
      <point x="74" y="316" type="line"/>
      <point x="354" y="316" type="line"/>
      <point x="358" y="345" type="line"/>
      <point x="78" y="345" type="line"/>
    </contour>
  </outline>
</glyph>
<glyph name="notequal" format="2">
  <advance width="413"/>
  <unicode hex="2260"/>
  <outline>
    <contour>
      <point x="341" y="543" type="line"/>
      <point x="72" y="124" type="line"/>
      <point x="91" y="111" type="line"/>
      <point x="360" y="530" type="line"/>
    </contour>
    <component base="equal"/>
  </outline>
</glyph>
<glyph name="lozenge" format="2">
  <advance width="405"/>
  <unicode hex="25CA"/>
  <outline>
    <contour>
      <point x="281" y="662" type="line"/>
      <point x="249" y="662" type="line"/>
      <point x="52" y="333" type="line"/>
      <point x="156" y="0" type="line"/>
      <point x="188" y="0" type="line"/>
      <point x="386" y="333" type="line"/>
    </contour>
    <contour>
      <point x="262" y="635" type="line"/>
      <point x="355" y="333" type="line"/>
      <point x="176" y="26" type="line"/>
      <point x="82" y="333" type="line"/>
    </contour>
  </outline>
</glyph>
<glyph name="acute.case.loclPLK" format="2">
  <advance width="203"/>
  <anchor x="161" y="682" name="_top"/>
  <outline>
    <contour>
      <point x="251" y="894" type="line"/>
      <point x="149" y="742" type="line"/>
      <point x="165" y="730" type="line"/>
      <point x="276" y="875" type="line"/>
    </contour>
  </outline>
</glyph>
<glyph name="acute.loclPLK" format="2">
  <advance width="203"/>
  <anchor x="145" y="520" name="_top"/>
  <outline>
    <contour>
      <point x="233" y="751" type="line"/>
      <point x="128" y="590" type="line"/>
      <point x="145" y="578" type="line"/>
      <point x="258" y="732" type="line"/>
    </contour>
  </outline>
</glyph>
<glyph name="acute.sc.loclPLK" format="2">
  <advance width="203"/>
  <anchor x="160" y="560" name="_top"/>
  <outline>
    <contour>
      <point x="236" y="791" type="line"/>
      <point x="131" y="630" type="line"/>
      <point x="148" y="618" type="line"/>
      <point x="261" y="772" type="line"/>
    </contour>
  </outline>
</glyph>
<glyph name="circumflexcomb.case" format="2">
  <anchor x="207" y="682" name="_top"/>
  <anchor x="230" y="877" name="top"/>
  <anchor x="143" y="730" name="topleft"/>
  <anchor x="287" y="730" name="topright"/>
  <outline>
    <contour>
      <point x="119" y="765" type="line"/>
      <point x="228" y="844" type="line"/>
      <point x="309" y="765" type="line"/>
      <point x="327" y="783" type="line"/>
      <point x="238" y="877" type="line"/>
      <point x="221" y="877" type="line"/>
      <point x="104" y="783" type="line"/>
    </contour>
  </outline>
</glyph>
<glyph name="dagger.tf" format="2">
  <advance width="460"/>
  <outline>
    <contour>
      <point x="305" y="682" type="line"/>
      <point x="275" y="682" type="line"/>
      <point x="253" y="523" type="line"/>
      <point x="99" y="523" type="line"/>
      <point x="95" y="495" type="line"/>
      <point x="248" y="495" type="line"/>
      <point x="179" y="0" type="line"/>
      <point x="209" y="0" type="line"/>
      <point x="279" y="495" type="line"/>
      <point x="432" y="495" type="line"/>
      <point x="435" y="523" type="line"/>
      <point x="283" y="523" type="line"/>
    </contour>
  </outline>
</glyph>
<glyph name="daggerdbl.tf" format="2">
  <advance width="460"/>
  <outline>
    <contour>
      <point x="395" y="238" type="line"/>
      <point x="59" y="238" type="line"/>
      <point x="54" y="210" type="line"/>
      <point x="391" y="210" type="line"/>
    </contour>
    <component base="dagger.tf"/>
  </outline>
</glyph>
<glyph name="eth.sc" format="2">
  <advance width="484"/>
  <anchor x="186" y="0" name="bottom"/>
  <anchor x="256" y="280" name="center"/>
  <anchor x="291" y="560" name="top"/>
  <outline>
    <contour>
      <point x="59" y="279" type="line"/>
      <point x="248" y="279" type="line"/>
      <point x="253" y="305" type="line"/>
      <point x="108" y="305" type="line"/>
      <point x="63" y="305" type="line"/>
    </contour>
    <component base="d.sc" xOffset="3"/>
  </outline>
</glyph>
<glyph name="four.osf" format="2">
  <advance width="378"/>
  <outline>
    <contour>
      <point x="240" y="567" type="line"/>
      <point x="4" y="77" type="line"/>
      <point x="1" y="52" type="line"/>
      <point x="355" y="52" type="line"/>
      <point x="360" y="80" type="line"/>
      <point x="37" y="80" type="line"/>
      <point x="266" y="556" type="line"/>
    </contour>
    <contour>
      <point x="313" y="287" type="line"/>
      <point x="288" y="287" type="line"/>
      <point x="254" y="73" type="line"/>
      <point x="229" y="-102" type="line"/>
      <point x="258" y="-102" type="line"/>
    </contour>
  </outline>
</glyph>
<glyph name="four.tosf" format="2">
  <advance width="460"/>
  <outline>
    <contour>
      <point x="274" y="567" type="line"/>
      <point x="41" y="77" type="line"/>
      <point x="37" y="52" type="line"/>
      <point x="399" y="52" type="line"/>
      <point x="404" y="80" type="line"/>
      <point x="74" y="80" type="line"/>
      <point x="300" y="556" type="line"/>
    </contour>
    <contour>
      <point x="353" y="287" type="line"/>
      <point x="327" y="287" type="line"/>
      <point x="294" y="73" type="line"/>
      <point x="268" y="-102" type="line"/>
      <point x="298" y="-102" type="line"/>
    </contour>
  </outline>
</glyph>
<glyph name="gravecomb.case" format="2">
  <anchor x="167" y="682" name="_top"/>
  <anchor x="189" y="869" name="top"/>
  <outline>
    <contour>
      <point x="131" y="865" type="line"/>
      <point x="111" y="835" type="line"/>
      <point x="251" y="761" type="line"/>
      <point x="264" y="780" type="line"/>
    </contour>
  </outline>
</glyph>
<glyph name="i.sc" format="2">
  <advance width="224"/>
  <anchor x="75" y="0" name="bottom"/>
  <anchor x="87" y="0" name="ogonek"/>
  <anchor x="154" y="560" name="top"/>
  <outline>
    <contour>
      <point x="169" y="560" type="line"/>
      <point x="139" y="560" type="line"/>
      <point x="60" y="0" type="line"/>
      <point x="90" y="0" type="line"/>
    </contour>
  </outline>
</glyph>
<glyph name="k.sc" format="2">
  <advance width="396"/>
  <anchor x="194" y="0" name="bottom"/>
  <anchor x="266" y="560" name="top"/>
  <outline>
    <contour>
      <point x="417" y="560" type="line"/>
      <point x="383" y="560" type="line"/>
      <point x="135" y="301" type="line"/>
      <point x="318" y="0" type="line"/>
      <point x="351" y="0" type="line"/>
      <point x="170" y="299" type="line"/>
    </contour>
    <contour>
      <point x="169" y="560" type="line"/>
      <point x="139" y="560" type="line"/>
      <point x="61" y="0" type="line"/>
      <point x="91" y="0" type="line"/>
    </contour>
  </outline>
</glyph>
<glyph name="minus.dnom" format="2">
  <advance width="340"/>
  <outline>
    <contour>
      <point x="67" y="190" type="line"/>
      <point x="254" y="190" type="line"/>
      <point x="257" y="215" type="line"/>
      <point x="70" y="215" type="line"/>
    </contour>
  </outline>
</glyph>
<glyph name="n.sc" format="2">
  <advance width="503"/>
  <anchor x="215" y="0" name="bottom"/>
  <anchor x="293" y="560" name="top"/>
  <outline>
    <contour>
      <point x="447" y="560" type="line"/>
      <point x="419" y="560" type="line"/>
      <point x="370" y="206" type="line" smooth="yes"/>
      <point x="359" y="124"/>
      <point x="352" y="67"/>
      <point x="349" y="29" type="curve"/>
      <point x="178" y="560" type="line"/>
      <point x="139" y="560" type="line"/>
      <point x="61" y="0" type="line"/>
      <point x="90" y="0" type="line"/>
      <point x="136" y="337" type="line" smooth="yes"/>
      <point x="151" y="445"/>
      <point x="156" y="490"/>
      <point x="159" y="533" type="curve"/>
      <point x="332" y="0" type="line"/>
      <point x="369" y="0" type="line"/>
    </contour>
  </outline>
</glyph>
<glyph name="numbersign.tf" format="2">
  <advance width="460"/>
  <outline>
    <contour>
      <point x="440" y="682" type="line"/>
      <point x="408" y="682" type="line"/>
      <point x="237" y="0" type="line"/>
      <point x="269" y="0" type="line"/>
    </contour>
    <contour>
      <point x="384" y="222" type="line"/>
      <point x="35" y="222" type="line"/>
      <point x="31" y="194" type="line"/>
      <point x="381" y="194" type="line"/>
    </contour>
    <contour>
      <point x="248" y="682" type="line"/>
      <point x="217" y="682" type="line"/>
      <point x="46" y="0" type="line"/>
      <point x="77" y="0" type="line"/>
    </contour>
    <contour>
      <point x="453" y="494" type="line"/>
      <point x="103" y="494" type="line"/>
      <point x="100" y="466" type="line"/>
      <point x="449" y="466" type="line"/>
    </contour>
  </outline>
</glyph>
<glyph name="o.sc" format="2">
  <advance width="512"/>
  <anchor x="207" y="0" name="bottom"/>
  <anchor x="309" y="560" name="top"/>
  <anchor x="460" y="560" name="topright"/>
  <outline>
    <contour>
      <point x="305" y="568" type="curve" smooth="yes"/>
      <point x="126" y="568"/>
      <point x="56" y="355"/>
      <point x="56" y="193" type="curve" smooth="yes"/>
      <point x="56" y="63"/>
      <point x="116" y="-8"/>
      <point x="212" y="-8" type="curve" smooth="yes"/>
      <point x="391" y="-8"/>
      <point x="461" y="205"/>
      <point x="461" y="367" type="curve" smooth="yes"/>
      <point x="461" y="497"/>
      <point x="401" y="568"/>
    </contour>
    <contour>
      <point x="305" y="541" type="curve" smooth="yes"/>
      <point x="383" y="540"/>
      <point x="430" y="482"/>
      <point x="430" y="367" type="curve" smooth="yes"/>
      <point x="430" y="221"/>
      <point x="374" y="20"/>
      <point x="212" y="20" type="curve" smooth="yes"/>
      <point x="134" y="20"/>
      <point x="87" y="78"/>
      <point x="87" y="193" type="curve" smooth="yes"/>
      <point x="87" y="339"/>
      <point x="143" y="541"/>
    </contour>
  </outline>
</glyph>
<glyph name="one.dnom" format="2">
  <advance width="340"/>
  <outline>
    <contour>
      <point x="221" y="411" type="line"/>
      <point x="198" y="411" type="line"/>
      <point x="82" y="336" type="line"/>
      <point x="94" y="316" type="line"/>
      <point x="188" y="376" type="line"/>
      <point x="135" y="0" type="line"/>
      <point x="163" y="0" type="line"/>
    </contour>
  </outline>
</glyph>
<glyph name="parenright.dnom" format="2">
  <advance width="340"/>
  <outline>
    <contour>
      <point x="82" y="-113" type="line"/>
      <point x="173" y="14"/>
      <point x="223" y="117"/>
      <point x="223" y="282" type="curve" smooth="yes"/>
      <point x="223" y="372"/>
      <point x="196" y="437"/>
      <point x="168" y="502" type="curve"/>
      <point x="147" y="491" type="line"/>
      <point x="172" y="427"/>
      <point x="193" y="368"/>
      <point x="193" y="282" type="curve" smooth="yes"/>
      <point x="193" y="132"/>
      <point x="150" y="28"/>
      <point x="64" y="-99" type="curve"/>
    </contour>
  </outline>
</glyph>
<glyph name="product.tf" format="2">
  <advance width="460"/>
  <outline>
    <contour>
      <point x="469" y="682" type="line"/>
      <point x="109" y="682" type="line"/>
      <point x="105" y="654" type="line"/>
      <point x="169" y="654" type="line"/>
      <point x="49" y="-199" type="line"/>
      <point x="80" y="-195" type="line"/>
      <point x="198" y="654" type="line"/>
      <point x="372" y="654" type="line"/>
      <point x="253" y="-199" type="line"/>
      <point x="283" y="-195" type="line"/>
      <point x="402" y="654" type="line"/>
      <point x="465" y="654" type="line"/>
    </contour>
  </outline>
</glyph>
<glyph name="seven.dnom" format="2">
  <advance width="340"/>
  <outline>
    <contour>
      <point x="289" y="411" type="line"/>
      <point x="92" y="411" type="line"/>
      <point x="88" y="384" type="line"/>
      <point x="255" y="384" type="line"/>
      <point x="64" y="7" type="line"/>
      <point x="90" y="-4" type="line"/>
      <point x="286" y="387" type="line"/>
    </contour>
  </outline>
</glyph>
<glyph name="summation.tf" format="2">
  <advance width="460"/>
  <outline>
    <contour>
      <point x="445" y="682" type="line"/>
      <point x="134" y="682" type="line"/>
      <point x="130" y="657" type="line"/>
      <point x="286" y="347" type="line"/>
      <point x="42" y="23" type="line"/>
      <point x="38" y="0" type="line"/>
      <point x="349" y="0" type="line"/>
      <point x="354" y="28" type="line"/>
      <point x="80" y="28" type="line"/>
      <point x="314" y="337" type="line"/>
      <point x="316" y="352" type="line"/>
      <point x="164" y="654" type="line"/>
      <point x="441" y="654" type="line"/>
    </contour>
  </outline>
</glyph>
<glyph name="t.sc" format="2">
  <advance width="345"/>
  <anchor x="139" y="0" name="bottom"/>
  <anchor x="160" y="0" name="bottomright"/>
  <anchor x="184" y="340" name="center"/>
  <anchor x="214" y="560" name="top"/>
  <outline>
    <contour>
      <point x="379" y="560" type="line"/>
      <point x="54" y="560" type="line"/>
      <point x="50" y="531" type="line"/>
      <point x="196" y="531" type="line"/>
      <point x="122" y="0" type="line"/>
      <point x="152" y="0" type="line"/>
      <point x="226" y="531" type="line"/>
      <point x="371" y="531" type="line"/>
    </contour>
  </outline>
</glyph>
<glyph name="two.tosf" format="2">
  <advance width="460"/>
  <outline>
    <contour>
      <point x="28" y="0" type="line"/>
      <point x="333" y="0" type="line"/>
      <point x="344" y="30" type="line"/>
      <point x="76" y="30" type="line"/>
      <point x="376" y="246"/>
      <point x="397" y="343"/>
      <point x="397" y="432" type="curve" smooth="yes"/>
      <point x="397" y="509"/>
      <point x="353" y="567"/>
      <point x="270" y="567" type="curve" smooth="yes"/>
      <point x="208" y="567"/>
      <point x="156" y="540"/>
      <point x="98" y="468" type="curve"/>
      <point x="119" y="449" type="line"/>
      <point x="165" y="507"/>
      <point x="210" y="540"/>
      <point x="269" y="540" type="curve" smooth="yes"/>
      <point x="334" y="540"/>
      <point x="366" y="496"/>
      <point x="366" y="430" type="curve" smooth="yes"/>
      <point x="366" y="346"/>
      <point x="353" y="263"/>
      <point x="32" y="29" type="curve"/>
    </contour>
  </outline>
</glyph>
<glyph name="v.sc" format="2">
  <advance width="403"/>
  <anchor x="165" y="0" name="bottom"/>
  <anchor x="244" y="560" name="top"/>
  <outline>
    <contour>
      <point x="420" y="560" type="line"/>
      <point x="389" y="560" type="line"/>
      <point x="170" y="29" type="line"/>
      <point x="97" y="560" type="line"/>
      <point x="67" y="560" type="line"/>
      <point x="147" y="0" type="line"/>
      <point x="183" y="0" type="line"/>
    </contour>
  </outline>
</glyph>
<glyph name="w.sc" format="2">
  <advance width="586"/>
  <anchor x="256" y="0" name="bottom"/>
  <anchor x="336" y="560" name="top"/>
  <outline>
    <contour>
      <point x="596" y="560" type="line"/>
      <point x="567" y="560" type="line"/>
      <point x="393" y="33" type="line"/>
      <point x="353" y="560" type="line"/>
      <point x="317" y="560" type="line"/>
      <point x="131" y="34" type="line"/>
      <point x="103" y="560" type="line"/>
      <point x="74" y="560" type="line"/>
      <point x="106" y="0" type="line"/>
      <point x="142" y="0" type="line"/>
      <point x="331" y="530" type="line"/>
      <point x="371" y="0" type="line"/>
      <point x="408" y="0" type="line"/>
    </contour>
  </outline>
</glyph>
<glyph name="x.sc" format="2">
  <advance width="359"/>
  <anchor x="141" y="0" name="bottom"/>
  <anchor x="288" y="0" name="bottomright"/>
  <anchor x="220" y="560" name="top"/>
  <outline>
    <contour>
      <point x="98" y="560" type="line"/>
      <point x="67" y="560" type="line"/>
      <point x="164" y="303" type="line"/>
      <point x="179" y="280" type="line"/>
      <point x="280" y="0" type="line"/>
      <point x="311" y="0" type="line"/>
      <point x="199" y="302" type="line"/>
      <point x="184" y="323" type="line"/>
    </contour>
    <contour>
      <point x="367" y="560" type="line"/>
      <point x="335" y="560" type="line"/>
      <point x="184" y="323" type="line"/>
      <point x="164" y="303" type="line"/>
      <point x="-26" y="0" type="line"/>
      <point x="7" y="0" type="line"/>
      <point x="179" y="280" type="line"/>
      <point x="199" y="302" type="line"/>
    </contour>
  </outline>
</glyph>
<glyph name="yen.tf" format="2">
  <advance width="460"/>
  <outline>
    <contour>
      <point x="486" y="682" type="line"/>
      <point x="452" y="682" type="line"/>
      <point x="241" y="333" type="line"/>
      <point x="125" y="682" type="line"/>
      <point x="93" y="682" type="line"/>
      <point x="223" y="310" type="line"/>
      <point x="179" y="0" type="line"/>
      <point x="210" y="0" type="line"/>
      <point x="254" y="309" type="line"/>
    </contour>
    <contour>
      <point x="346" y="191" type="line"/>
      <point x="96" y="191" type="line"/>
      <point x="92" y="162" type="line"/>
      <point x="342" y="162" type="line"/>
    </contour>
    <contour>
      <point x="366" y="332" type="line"/>
      <point x="117" y="332" type="line"/>
      <point x="112" y="304" type="line"/>
      <point x="362" y="304" type="line"/>
    </contour>
  </outline>
</glyph>
